<svg width="204" height="68" viewBox="0 0 204 68" fill="none" xmlns="http://www.w3.org/2000/svg">
<g clip-path="url(#clip0)">
<path d="M71.7959 18.4643V18.4104C71.7959 17.9798 71.4216 17.603 70.994 17.603H41.7518C41.3242 17.603 40.95 17.926 40.95 18.4104V18.7873C40.95 24.7088 44.2644 29.8228 49.0757 32.4605C48.9154 32.7835 48.8619 33.1065 48.8619 33.4833C48.8619 34.7753 49.8776 35.7981 51.1606 35.7981H61.5852C62.8682 35.7981 63.8839 34.7753 63.8839 33.4833C63.8839 33.1065 63.777 32.7835 63.6701 32.4605C68.4814 29.8228 71.7959 24.7088 71.7959 18.7873V18.4643Z" fill="white"/>
<path d="M71.7956 18.4643V18.4104C71.7956 17.9798 71.4214 17.603 70.9938 17.603H56.3459V35.7981H61.5315C62.8145 35.7981 63.8302 34.7753 63.8302 33.4833C63.8302 33.1065 63.7233 32.7835 63.6164 32.4605C68.4277 29.8228 71.7422 24.7088 71.7422 18.7873V18.6796C71.7956 18.6258 71.7956 18.5181 71.7956 18.4643Z" fill="#F6F6F7"/>
<path d="M51.7485 24.8164C51.7485 23.3629 52.9246 22.1248 54.4215 22.1248C55.2234 22.1248 55.9183 22.4478 56.3995 22.9861C56.8806 22.4478 57.5756 22.1248 58.3775 22.1248C59.8209 22.1248 61.0504 23.3091 61.0504 24.8164C61.0504 25.57 60.7297 26.216 60.2485 26.7005L56.3995 30.7917L52.497 26.6467C52.0158 26.1622 51.7485 25.5162 51.7485 24.8164Z" fill="#FFE144"/>
<path d="M58.3239 22.1248C57.522 22.1248 56.8271 22.4478 56.3459 22.9861V30.7379L60.195 26.6467C60.6761 26.1622 60.9969 25.5162 60.9969 24.7626C60.9969 23.3629 59.7673 22.1248 58.3239 22.1248Z" fill="#F2CD20"/>
<path d="M25.7674 45.5416C25.2863 45.3801 24.9121 45.2186 24.6982 45.0571C24.4844 44.8956 24.324 44.788 24.2171 44.6265C24.1102 44.465 24.0567 44.2496 24.0567 44.0343C24.0567 43.7113 24.1637 43.4422 24.4309 43.2268C24.6982 43.0115 25.019 42.9577 25.5001 42.9577C26.0882 42.9577 26.6762 43.0653 27.3177 43.3345L27.4247 43.3883L27.7454 42.4194L27.692 42.3655C27.0504 42.0964 26.302 41.9349 25.5536 41.9349C24.8052 41.9349 24.1637 42.0964 23.736 42.4732C23.2548 42.85 23.041 43.3345 23.041 43.9805C23.041 44.5726 23.2014 45.0571 23.5221 45.4339C23.8429 45.8108 24.3775 46.1337 25.1259 46.4029C25.6071 46.5644 26.0347 46.7259 26.2486 46.8874C26.4624 47.0489 26.6762 47.1565 26.7832 47.318C26.8901 47.4795 26.9435 47.6949 26.9435 47.9102C26.9435 48.287 26.7832 48.5562 26.5159 48.7715C26.2486 48.9868 25.7674 49.0945 25.2328 49.0945C24.8586 49.0945 24.4844 49.0407 24.1637 48.9868C23.7894 48.933 23.4687 48.8253 23.1479 48.6638L23.041 48.61V49.6866H23.0945C23.5756 49.9558 24.324 50.0635 25.2328 50.0635C26.0882 50.0635 26.7832 49.8481 27.3177 49.4713C27.8523 49.0945 28.0662 48.5023 28.0662 47.8025C28.0662 47.2642 27.9058 46.7797 27.585 46.4567C27.1574 46.1876 26.6228 45.8646 25.7674 45.5416ZM31.9687 43.9267C31.541 43.9267 31.1668 44.0343 30.846 44.1958C30.5787 44.3035 30.3649 44.5188 30.2045 44.6803V42.0964H29.1354V50.0635H30.2045V46.9412C30.2045 46.1876 30.3649 45.6493 30.5787 45.3801C30.846 45.0571 31.2737 44.8956 31.8618 44.8956C32.2894 44.8956 32.6102 45.0033 32.824 45.2186C33.0379 45.4339 33.1448 45.7569 33.1448 46.2414V50.1173H34.214V46.2414C34.214 45.4878 34.0001 44.8956 33.6794 44.5726C33.2517 44.0881 32.6637 43.9267 31.9687 43.9267ZM37.9561 43.9267C37.5819 43.9267 37.2611 43.9805 36.8869 44.0881C36.5662 44.1958 36.192 44.3035 35.9247 44.465L35.8712 44.5188L36.192 45.3801L36.2989 45.3263C36.8869 45.0571 37.4215 44.8956 37.9026 44.8956C38.3303 44.8956 38.5976 45.0033 38.758 45.2186C38.9184 45.4339 39.0253 45.7569 39.0253 46.1876V46.4567L38.1165 46.5106C36.192 46.5644 35.2297 47.2104 35.2297 48.4485C35.2297 49.0407 35.3901 49.4713 35.7643 49.7943C36.085 50.1173 36.5662 50.2788 37.1542 50.2788C37.5819 50.2788 37.9561 50.225 38.2769 50.0635C38.5442 49.9558 38.8115 49.7405 39.0788 49.4175L39.2391 50.1711H40.041V46.0799C40.041 45.3801 39.8806 44.8418 39.5064 44.5188C39.1857 44.0881 38.6511 43.9267 37.9561 43.9267ZM39.0253 47.1566V47.5872C39.0253 48.1255 38.8649 48.5023 38.5976 48.7715C38.3303 49.0407 37.9026 49.2022 37.3681 49.2022C37.0473 49.2022 36.78 49.1483 36.6196 48.9868C36.4593 48.8253 36.3523 48.61 36.3523 48.3408C36.3523 47.964 36.5127 47.6949 36.78 47.5334C37.0473 47.3719 37.5819 47.2642 38.2234 47.2104L39.0253 47.1566ZM43.997 43.9267C43.6228 43.9267 43.2486 44.0343 42.9278 44.2496C42.6605 44.4111 42.4467 44.6803 42.2328 45.0033L42.1259 44.0343H41.2171V50.0635H42.2863V46.8336C42.2863 46.2952 42.4467 45.8108 42.7674 45.4878C43.0882 45.1109 43.4624 44.9495 43.8901 44.9495C44.0504 44.9495 44.2643 44.9495 44.5316 45.0033H44.6385L44.7989 43.9805H44.692C44.4781 43.9266 44.2643 43.9267 43.997 43.9267ZM47.846 43.9267C47.0442 43.9267 46.4026 44.1958 45.9215 44.7879C45.4404 45.3801 45.2265 46.1338 45.2265 47.1027C45.2265 48.0717 45.4938 48.8253 45.975 49.3636C46.5096 49.902 47.2045 50.1711 48.0599 50.1711C48.4341 50.1711 48.8083 50.1173 49.0756 50.0635C49.3429 50.0096 49.6637 49.902 49.9844 49.7943H50.0379V48.8253L49.931 48.8792C49.3429 49.1483 48.7014 49.256 48.1133 49.256C47.5253 49.256 47.0976 49.0945 46.7769 48.7715C46.4561 48.4485 46.2957 47.964 46.2957 47.3719H50.3052V46.7259C50.3052 45.9184 50.0913 45.2724 49.6637 44.7879C49.1825 44.142 48.5945 43.9267 47.846 43.9267ZM47.846 44.8418C48.2737 44.8418 48.5945 45.0033 48.8083 45.2724C49.0221 45.5416 49.1291 45.9184 49.1825 46.4029H46.3492C46.4026 45.9184 46.563 45.5416 46.8303 45.2724C47.0442 45.0033 47.3649 44.8418 47.846 44.8418ZM49.5567 43.0653H51.9624V50.0635H53.085V43.0653H55.4907V42.0964H49.5567V43.0653ZM59.1794 43.9267C58.7517 43.9267 58.3775 44.0343 58.0567 44.1958C57.7894 44.3035 57.5756 44.5188 57.4152 44.6803V42.0964H56.346V50.0635H57.4152V46.9412C57.4152 46.1876 57.5756 45.6493 57.7894 45.3801C58.0567 45.0571 58.4844 44.8956 59.0725 44.8956C59.5001 44.8956 59.8209 45.0033 60.0347 45.2186C60.2486 45.4339 60.3555 45.7569 60.3555 46.2414V50.1173H61.4247V46.2414C61.4247 45.4878 61.2108 44.8956 60.8901 44.5726C60.4624 44.0881 59.9278 43.9267 59.1794 43.9267ZM65.1668 43.9267C64.3649 43.9267 63.7234 44.1958 63.2423 44.7879C62.7611 45.3801 62.5473 46.1338 62.5473 47.1027C62.5473 48.0717 62.8146 48.8253 63.2957 49.3636C63.8303 49.902 64.5253 50.1711 65.3806 50.1711C65.7549 50.1711 66.1291 50.1173 66.3964 50.0635C66.6637 50.0096 66.9844 49.902 67.3052 49.7943H67.3586V48.8253L67.2517 48.8792C66.6637 49.1483 66.0221 49.256 65.4341 49.256C64.846 49.256 64.4184 49.0945 64.0976 48.7715C63.7769 48.4485 63.6165 47.964 63.6165 47.3719H67.6259V46.7259C67.6259 45.9184 67.4121 45.2724 66.9844 44.7879C66.5033 44.142 65.9152 43.9267 65.1668 43.9267ZM65.1668 44.8418C65.5945 44.8418 65.9152 45.0033 66.1291 45.2724C66.3429 45.5416 66.4498 45.9184 66.5033 46.4029H63.6699C63.7234 45.9184 63.8838 45.5416 64.1511 45.2724C64.3649 45.0033 64.6857 44.8418 65.1668 44.8418ZM72.7045 48.3947L70.2989 42.0964H68.802V50.0635H69.8177V45.0033C69.8177 44.465 69.8177 43.9805 69.7643 43.5498L72.2234 50.0096V50.0635H73.0788L75.5913 43.5498C75.5379 44.0343 75.5379 44.5188 75.5379 44.9495V50.0635H76.6071V42.0964H75.1102L72.7045 48.3947ZM80.2957 43.9267C79.4938 43.9267 78.8523 44.1958 78.3712 44.7879C77.8901 45.3801 77.6762 46.1338 77.6762 47.1027C77.6762 48.0717 77.9435 48.8253 78.4247 49.3636C78.9593 49.902 79.6542 50.1711 80.5096 50.1711C80.8838 50.1711 81.258 50.1173 81.5253 50.0635C81.7926 50.0096 82.1133 49.902 82.4341 49.7943H82.4876V48.8253L82.3806 48.8792C81.7926 49.1483 81.1511 49.256 80.563 49.256C79.975 49.256 79.5473 49.0945 79.2265 48.7715C78.9058 48.4485 78.7454 47.964 78.7454 47.3719H82.7549V46.7259C82.7549 45.9184 82.541 45.2724 82.1133 44.7879C81.6857 44.142 81.0976 43.9267 80.2957 43.9267ZM80.2957 44.8418C80.7234 44.8418 81.0442 45.0033 81.258 45.2724C81.4718 45.5416 81.5788 45.9184 81.6322 46.4029H78.7989C78.8523 45.9184 79.0127 45.5416 79.28 45.2724C79.5473 45.0033 79.8681 44.8418 80.2957 44.8418ZM86.1762 43.9267C85.802 43.9267 85.4813 43.9805 85.1071 44.0881C84.7863 44.1958 84.4121 44.3035 84.1448 44.465L84.0913 44.5188L84.4121 45.3801L84.519 45.3263C85.1071 45.0571 85.6416 44.8956 86.1228 44.8956C86.5504 44.8956 86.8177 45.0033 86.9781 45.2186C87.1385 45.4339 87.2454 45.7569 87.2454 46.1876V46.4567L86.3366 46.5106C84.4121 46.5644 83.4498 47.2104 83.4498 48.4485C83.4498 49.0407 83.6102 49.4713 83.9844 49.7943C84.3052 50.1173 84.7863 50.2788 85.3743 50.2788C85.802 50.2788 86.1762 50.225 86.497 50.0635C86.7643 49.9558 87.0316 49.7405 87.2989 49.4175L87.4593 50.1711H88.2611V46.0799C88.2611 45.3801 88.1008 44.8418 87.7265 44.5188C87.4058 44.0881 86.8712 43.9267 86.1762 43.9267ZM87.2454 47.1566V47.5872C87.2454 48.1255 87.085 48.5023 86.8177 48.7715C86.5505 49.0407 86.1228 49.2022 85.5882 49.2022C85.2674 49.2022 85.0001 49.1483 84.8398 48.9868C84.6794 48.8253 84.5725 48.61 84.5725 48.3408C84.5725 47.964 84.7328 47.6949 85.0001 47.5334C85.2674 47.3719 85.802 47.2642 86.4435 47.2104L87.2454 47.1566ZM89.4907 42.0964H90.5599V50.0635H89.4907V42.0964Z" fill="white"/>
<path d="M135.786 22.717C135.733 22.717 135.733 22.7708 135.786 22.7708C137.123 23.6321 136.962 24.3858 139.368 26.1622C138.833 24.2781 137.55 22.7708 135.786 22.717ZM139.154 23.5783C139.582 24.3319 139.689 25.0856 139.902 25.8931L140.277 27.7772C139.956 27.185 138.352 26.4314 137.283 25.5701H137.23C137.818 27.2927 139.742 28.0463 140.918 29.3383H140.972C140.865 27.508 141.185 25.1932 139.154 23.5783ZM142.575 29.6613C142.522 28.4231 142.255 27.2927 141.506 26.3237H141.453C141.987 28.2616 141.399 29.9304 141.613 31.33H141.56C141.025 30.0381 139.582 29.3921 138.994 28.5308H138.94C139.528 31.0609 141.399 31.8684 141.774 33.2142H141.827C142.094 32.2452 142.629 31.1686 142.575 29.6613ZM143.27 31.0609C143.217 31.0609 143.27 31.0071 143.27 31.0609C143.163 32.945 142.094 34.3985 141.88 35.6904C141.827 34.0216 140.651 32.9988 139.956 31.7607H139.902C139.796 34.1831 141.56 35.6904 141.506 37.736C141.506 37.736 141.56 37.7899 141.56 37.736C142.843 35.7981 144.126 33.4833 143.27 31.0609ZM143.698 36.0672C143.645 36.0134 143.698 36.0134 143.698 36.0672C142.789 37.7899 141.827 38.1667 140.544 39.9969C141.025 38.4897 140.223 36.4979 140.17 35.1521C140.17 35.0983 140.116 35.0983 140.116 35.1521C139.101 37.5745 140.17 40.1046 139.314 41.7734C139.314 41.7734 139.314 41.8272 139.368 41.8272C140.597 41.1812 141.827 40.2661 142.736 39.0818C143.217 38.1667 143.752 37.2515 143.698 36.0672ZM142.415 40.5891C141.56 41.8272 139.582 42.2579 137.657 43.819C138.619 42.527 138.513 40.7506 138.887 39.1895C138.887 39.1895 138.887 39.1356 138.833 39.1895C136.962 41.2889 137.23 43.6575 136.374 44.7341V44.788C139.208 44.6803 142.255 42.2041 142.415 40.5891C142.469 40.5891 142.469 40.5891 142.415 40.5891ZM139.742 44.8418C137.283 45.9723 136.267 45.3263 133.915 45.8108C135.572 44.8956 135.893 43.4422 136.428 42.527C136.428 42.527 136.428 42.4732 136.374 42.4732C134.557 43.3883 133.969 45.4339 131.777 45.9184V45.9723C132.685 46.1876 133.38 46.5644 134.343 46.6721C137.016 46.8874 138.994 46.0799 139.742 44.8418C139.796 44.8956 139.796 44.8418 139.742 44.8418ZM119.428 22.717C117.663 22.7708 116.38 24.2781 115.792 26.1622C118.198 24.3858 118.091 23.5783 119.374 22.7708C119.481 22.7708 119.481 22.717 119.428 22.717ZM117.984 25.5701C116.915 26.3775 115.365 27.185 114.991 27.7772L115.365 25.8931C115.525 25.0856 115.685 24.3319 116.113 23.6321C116.113 23.6321 116.113 23.5783 116.06 23.5783C114.082 25.1932 114.349 27.4542 114.296 29.3383C114.296 29.3383 114.296 29.3921 114.349 29.3383C115.525 28.1002 117.396 27.3465 117.984 25.5701ZM116.22 28.5846C115.579 29.4998 114.135 30.0919 113.654 31.3839H113.601C113.814 29.9304 113.28 28.2616 113.761 26.3775C113.761 26.3237 113.708 26.3237 113.708 26.3775C112.906 27.3465 112.638 28.477 112.638 29.7151C112.585 31.2224 113.119 32.299 113.387 33.3218H113.44C113.814 31.976 115.685 31.1686 116.22 28.5846C116.274 28.5846 116.274 28.5846 116.22 28.5846ZM115.365 31.7607C114.616 32.9988 113.44 34.0216 113.387 35.6904C113.173 34.3985 112.104 32.945 112.05 31.0609C112.05 31.0071 111.997 31.0071 111.997 31.0609C111.088 33.4833 112.371 35.7981 113.761 37.736H113.814C113.761 35.6904 115.472 34.1831 115.365 31.7607ZM116.006 41.7734C115.097 40.1046 116.167 37.6284 115.151 35.1521H115.097C115.044 36.4979 114.242 38.4897 114.723 39.9969C113.44 38.1128 112.424 37.736 111.623 36.0134H111.569C111.516 37.1977 112.05 38.1128 112.585 38.9741C113.547 40.2661 114.723 41.1813 116.006 41.7734ZM118.893 44.6803C118.091 43.6037 118.305 41.2889 116.434 39.1356H116.38C116.755 40.6968 116.648 42.4732 117.61 43.7652C115.685 42.2579 113.708 41.7734 112.852 40.5353H112.799C113.013 42.204 116.06 44.6803 118.893 44.6803ZM123.384 45.9184C121.192 45.3801 120.604 43.3345 118.786 42.4732C118.786 42.4732 118.733 42.4732 118.733 42.527C119.321 43.496 119.588 44.8956 121.245 45.8108C118.893 45.3263 117.877 45.9723 115.418 44.8418C115.418 44.8418 115.365 44.8418 115.365 44.8956C116.167 46.0799 118.091 46.8874 120.764 46.6721C121.78 46.5644 122.475 46.1876 123.384 45.9184C123.437 45.9723 123.437 45.9184 123.384 45.9184ZM137.069 47.3719C136.214 47.6949 135.091 47.7487 134.182 47.4795C132.097 46.8336 129.799 45.5955 127.607 46.6183C125.415 45.5955 123.116 46.8336 121.031 47.4795C120.123 47.7487 119 47.6949 118.145 47.3719C118.145 47.3719 118.091 47.3719 118.145 47.4257C119.374 48.3947 121.085 48.8254 122.635 48.2332C124.132 47.7487 125.362 46.1876 127.126 46.8874C125.736 47.4257 124.453 48.4485 123.437 49.4175L124.185 50.0096C125.094 48.933 126.11 47.8564 127.286 47.2104C127.446 47.1027 127.553 47.1027 127.66 47.0489C127.767 47.0489 127.874 47.1027 128.035 47.2104C129.211 47.8564 130.226 48.933 131.135 50.0096L131.884 49.4175C130.868 48.4485 129.585 47.4796 128.195 46.8874C129.959 46.1876 131.189 47.8026 132.685 48.2332C134.182 48.7715 135.893 48.3409 137.069 47.3719C137.123 47.3719 137.123 47.3719 137.069 47.3719ZM128.623 41.5581H125.255C125.041 41.5581 124.827 41.5581 124.613 41.5042C125.148 42.3117 126.057 42.9577 126.912 43.3884C127.072 44.142 127.233 44.8418 127.286 44.8956C127.34 44.9495 128.195 44.6803 128.248 44.6265C128.248 44.5726 127.874 43.2268 127.874 43.2268C128.355 42.4732 128.462 41.9887 128.623 41.5581ZM134.503 23.9551C134.396 23.9013 134.129 24.5473 133.808 24.7626L133.648 24.9241C133.594 24.9779 133.594 25.0856 133.594 25.1394C133.594 25.1932 133.648 25.2471 133.701 25.3009C133.755 25.3547 133.808 25.3547 133.862 25.3009L134.022 25.1394C134.075 25.0856 134.075 24.9779 134.075 24.9241C134.075 24.5473 134.557 24.0089 134.503 23.9551ZM134.717 24.9241C134.663 24.8702 134.236 25.5701 133.862 25.4624H133.648C133.594 25.4624 133.594 25.5162 133.541 25.5162V25.4624C133.541 25.3547 133.487 25.3009 133.434 25.2471C133.167 24.9241 133.541 24.2243 133.487 24.1704C133.434 24.1704 133.274 24.9241 133.113 25.2471C133.06 25.3009 133.06 25.4086 133.06 25.4624C133.06 25.5701 133.113 25.6239 133.167 25.6777C133.22 25.7316 133.274 25.7854 133.38 25.7854C133.434 25.7854 133.487 25.7316 133.541 25.7316V25.8392L133.701 26.0007H133.915L134.075 25.8392C134.236 25.4624 134.77 24.9779 134.717 24.9241ZM134.557 25.7854C134.503 25.7316 133.915 26.3775 133.541 26.216C133.487 26.1622 133.38 26.1622 133.274 26.216C133.22 26.216 133.167 26.2699 133.113 26.2699V26.216C133.113 26.1084 133.06 26.0545 132.953 26.0007C132.632 25.7316 132.899 24.8164 132.792 24.8164C132.739 24.8164 132.739 25.6777 132.525 26.1084C132.472 26.1622 132.472 26.2699 132.525 26.3775C132.525 26.4852 132.579 26.539 132.685 26.5929C132.739 26.6467 132.846 26.6467 132.899 26.6467C132.953 26.6467 132.953 26.5929 133.006 26.5929C133.006 26.7005 133.113 26.7544 133.167 26.7544C133.22 26.8082 133.327 26.8082 133.434 26.7544C133.541 26.7544 133.594 26.7005 133.648 26.5929C133.915 26.2699 134.61 25.8392 134.557 25.7854ZM133.22 27.0235C133.167 26.9697 133.06 26.9697 132.953 27.0235C132.899 27.0235 132.792 27.0773 132.792 27.1312V26.9159C132.792 26.8082 132.739 26.7005 132.632 26.6467C132.311 26.3237 132.525 25.3547 132.472 25.3009C132.418 25.3009 132.418 26.2699 132.258 26.7005C132.204 26.8082 132.204 26.9158 132.258 27.0235C132.311 27.1312 132.365 27.2388 132.418 27.2927C132.472 27.3465 132.579 27.4003 132.632 27.3465H132.685V27.4003C132.685 27.4542 132.739 27.5618 132.846 27.5618C132.899 27.6157 133.006 27.6157 133.113 27.5618C133.22 27.5618 133.327 27.508 133.38 27.4003C133.701 27.0235 134.396 26.539 134.343 26.4852C134.236 26.4314 133.594 27.185 133.22 27.0235ZM129.424 29.0153C129.799 28.4231 130.333 27.9387 130.814 27.4003V27.3465H130.761L130.44 27.6695C130.387 27.6695 130.28 27.6695 130.119 27.7772C130.013 27.831 129.959 27.9387 129.906 27.9925C129.852 27.9925 129.745 28.0463 129.638 28.2078C129.531 28.3155 129.478 28.4231 129.478 28.5308C129.424 28.5308 129.318 28.6385 129.211 28.7461C129.157 28.8538 129.104 28.9076 129.104 29.0153C129.05 29.0691 128.997 29.1229 128.943 29.2306C128.89 29.3383 128.836 29.4998 128.836 29.5536C128.836 29.6074 128.783 29.6074 128.783 29.6613V29.6074C128.89 28.7461 129.05 27.8848 129.264 27.0773C129.531 26.2699 129.799 25.4086 130.28 24.7626V24.6549C130.226 24.6011 130.173 24.6011 130.173 24.6549C130.013 24.8164 129.852 25.0317 129.745 25.2471C129.692 25.1932 129.585 25.3547 129.478 25.5162C129.371 25.6777 129.371 25.8392 129.371 25.8931C129.318 25.8931 129.211 26.0007 129.157 26.1622C129.104 26.3237 129.104 26.4852 129.104 26.539C129.05 26.539 128.943 26.6467 128.836 26.862C128.783 27.0235 128.783 27.185 128.836 27.2927C128.783 27.2927 128.676 27.4003 128.623 27.6157C128.569 27.831 128.569 27.9925 128.623 28.0463C128.569 28.0463 128.462 28.2078 128.409 28.4231C128.355 28.5846 128.355 28.7461 128.409 28.8538C128.355 28.8538 128.248 29.0153 128.248 29.2306C128.195 29.4459 128.248 29.6074 128.302 29.6613C128.248 29.7151 128.195 29.8766 128.141 30.0381C128.141 30.2534 128.141 30.4149 128.195 30.4688C128.141 30.5226 128.088 30.6841 128.088 30.8456V31.2224C128.035 31.2762 127.981 31.4377 127.981 31.5992C127.981 31.7607 127.981 31.8684 128.035 31.976C127.981 32.0299 127.981 32.1375 127.981 32.299C127.981 32.4605 127.981 32.5682 128.035 32.6758V34.3985H129.211C129.211 33.9678 129.264 33.4833 129.318 33.0527C129.424 32.299 129.531 31.4915 129.906 30.8456V30.7917H129.852C129.318 31.3839 129.104 32.2452 128.997 32.9988C128.997 33.1603 128.943 33.3218 128.943 33.4833C128.997 32.8373 129.05 32.2452 129.157 31.5992C129.318 30.8456 129.638 30.1458 130.28 29.7689C130.28 29.7689 130.333 29.7151 130.28 29.7151C130.28 29.6613 130.226 29.6613 130.226 29.6613C130.173 29.6613 130.173 29.7151 130.119 29.7151C130.066 29.6613 129.906 29.7151 129.745 29.8228C129.585 29.9304 129.478 30.0381 129.531 30.0919C129.478 30.0381 129.318 30.1458 129.211 30.3072C129.104 30.4687 129.05 30.6841 129.104 30.7379C129.05 30.6841 128.943 30.8456 128.836 31.0609C128.783 31.2224 128.783 31.3301 128.783 31.4377C128.73 31.5992 128.676 31.7607 128.623 31.976C128.623 31.7069 128.676 31.4915 128.676 31.2224C128.836 30.3073 129.05 29.6074 129.424 29.0153ZM132.472 32.4605C132.418 32.4067 132.365 32.4067 132.365 32.4605C131.67 33.1603 131.296 33.914 131.135 34.237H131.509C131.723 33.7525 132.151 32.945 132.472 32.622V32.4605ZM131.884 44.3573C131.777 43.9805 131.563 43.7113 131.456 43.3345C131.296 43.0115 131.189 42.6885 131.082 42.3117C130.975 42.0426 130.868 41.7734 130.814 41.5042H130.44C130.547 41.8272 130.654 42.1502 130.814 42.4732C131.082 43.173 131.402 43.819 131.83 44.4112C131.83 44.4112 131.884 44.465 131.884 44.4112C131.884 44.465 131.937 44.4111 131.884 44.3573ZM131.777 42.9039C131.67 42.4732 131.563 41.9887 131.456 41.5581H131.082C131.242 42.0425 131.456 42.527 131.616 42.9577C131.616 43.0115 131.67 43.0115 131.723 43.0115C131.777 43.0115 131.777 42.9577 131.777 42.9039ZM130.761 44.0343L130.173 41.5581H129.157C129.318 42.204 129.531 42.85 129.852 43.3884C129.852 43.4422 129.906 43.4422 129.959 43.4422C130.013 43.4422 130.066 43.3883 130.013 43.3345C129.959 42.7962 129.852 42.3117 129.799 41.7734C130.013 42.5809 130.28 43.3345 130.708 44.0882C130.708 44.0882 130.761 44.142 130.761 44.0882V44.0343ZM136 27.9387C135.626 27.831 133.274 27.4003 130.654 32.299C131.028 30.4687 132.204 28.2616 132.525 27.6157V27.508H132.418C130.654 30.4149 130.066 32.1375 129.692 34.1293H130.761C130.921 32.1914 133.38 27.6157 136 27.9387ZM126.484 25.4624L126.431 25.4086C126.377 25.4086 126.377 25.4624 126.377 25.5162C127.072 27.3465 126.163 28.2616 125.843 29.5536C125.415 28.477 126.858 27.508 126.11 25.6239L126.057 25.5701C126.003 25.5701 126.003 25.5701 126.003 25.6239C126.003 25.7854 125.896 26.8082 125.041 27.4542C124.934 27.2388 124.827 27.0235 124.667 26.862C124.613 26.4852 124.346 26.0007 123.865 25.8931C123.811 25.7316 123.651 25.4624 123.384 25.3009C123.116 25.1932 122.796 25.1932 122.475 25.3547C122.047 25.4086 121.78 25.5701 121.619 25.8392C121.459 26.1084 121.513 26.3775 121.566 26.539C121.192 26.9158 121.192 27.4542 121.192 27.6695C120.978 28.154 121.085 28.7461 121.192 29.0153C120.924 29.7151 121.192 30.3611 121.299 30.5764V30.7379C120.497 29.8228 118.626 28.7461 117.931 28.3155H117.824C117.77 28.3693 117.77 28.4231 117.824 28.4231C119.374 29.9843 120.818 31.8684 122.154 35.7981C122.849 35.0983 124.025 34.1831 125.736 34.1831H127.767C126.324 29.3921 128.195 27.6695 126.484 25.4624ZM125.308 29.2306C125.469 29.4459 125.415 29.8228 125.094 29.8228C124.934 29.8228 124.72 29.8228 124.613 29.6613C124.453 29.4459 124.506 29.0691 124.827 29.0691C124.987 29.123 125.201 29.1229 125.308 29.2306ZM124.88 28.1001C125.148 28.2078 125.255 28.5308 125.041 28.6923C124.934 28.8 124.774 28.7461 124.613 28.7461C124.346 28.6923 124.185 28.3155 124.399 28.154C124.56 28.0463 124.774 28.0463 124.88 28.1001ZM123.758 29.1768C123.972 29.1768 124.185 29.123 124.346 29.3383C124.506 29.6074 124.399 29.9304 124.079 29.9843C123.865 30.0381 123.651 30.0381 123.544 29.8766C123.384 29.6613 123.437 29.1768 123.758 29.1768ZM123.277 28.5308C123.116 28.0463 123.918 27.831 124.079 28.3155C124.185 28.8 123.384 29.0153 123.277 28.5308ZM124.346 27.185C124.56 27.185 124.667 27.508 124.56 27.6695C124.506 27.7772 124.292 27.7772 124.185 27.7772C123.972 27.7233 123.811 27.4542 123.972 27.2927C124.079 27.185 124.239 27.185 124.346 27.185ZM123.758 26.3237C123.865 26.2699 124.025 26.3237 124.079 26.3775C124.239 26.539 124.185 26.8082 123.972 26.862C123.865 26.862 123.704 26.862 123.651 26.8082C123.491 26.7005 123.544 26.3775 123.758 26.3237ZM123.704 27.4542C123.865 27.8848 123.17 28.1002 123.009 27.6695C122.902 27.2388 123.597 27.0235 123.704 27.4542ZM122.742 26.7544C122.635 26.3775 123.223 26.216 123.33 26.539C123.437 26.9158 122.849 27.1312 122.742 26.7544ZM122.742 28.6385C122.582 28.6923 122.421 28.7461 122.261 28.5846C122.101 28.4231 122.154 28.1002 122.368 27.9925C122.528 27.9387 122.742 27.8848 122.849 28.0463C123.009 28.2078 123.009 28.5846 122.742 28.6385ZM122.849 25.5701C122.956 25.5162 123.116 25.4624 123.223 25.5701C123.384 25.6777 123.33 25.9469 123.17 26.0545C123.063 26.1084 122.902 26.1622 122.796 26.0545C122.635 25.9469 122.635 25.6239 122.849 25.5701ZM122.742 27.3465C122.849 27.7233 122.261 27.9386 122.154 27.5618C122.047 27.185 122.635 26.9697 122.742 27.3465ZM121.833 26.7544C121.726 26.4314 122.314 26.2699 122.421 26.5929C122.528 26.9159 121.94 27.1312 121.833 26.7544ZM121.94 25.7316C122.047 25.6777 122.208 25.6239 122.314 25.7854C122.421 25.8931 122.421 26.1084 122.261 26.216C122.154 26.2699 121.994 26.3237 121.887 26.1622C121.726 26.0007 121.78 25.8392 121.94 25.7316ZM121.406 27.0773C121.513 27.0235 121.619 26.9697 121.726 27.0235C121.94 27.0773 121.887 27.4003 121.78 27.508C121.726 27.5618 121.566 27.6157 121.513 27.6157C121.299 27.508 121.245 27.185 121.406 27.0773ZM121.406 28.0463C121.513 27.9387 121.619 27.8848 121.78 27.9387C121.994 28.0463 121.994 28.3693 121.833 28.477C121.726 28.5308 121.619 28.5846 121.513 28.5846C121.245 28.5308 121.192 28.2078 121.406 28.0463ZM122.047 29.0691C122.314 29.4998 121.566 29.9843 121.352 29.5536C121.138 29.123 121.78 28.6385 122.047 29.0691ZM121.352 30.5764C121.138 30.0919 121.94 29.5536 122.154 30.0919C122.421 30.5764 121.619 31.1147 121.352 30.5764ZM122.208 31.653L122.154 31.7069L121.726 31.2224C121.726 31.2224 121.887 31.1147 121.887 31.0609C122.208 30.8994 122.528 31.4915 122.208 31.653ZM122.314 29.4459C122.154 28.9076 123.063 28.6385 123.223 29.1768C123.33 29.7689 122.421 29.9843 122.314 29.4459ZM122.421 30.6302C122.261 30.0381 123.223 29.7689 123.384 30.3611C123.544 30.9532 122.582 31.1686 122.421 30.6302ZM122.582 31.7607C122.421 31.1686 123.384 30.8994 123.544 31.4915C123.704 32.0837 122.689 32.3529 122.582 31.7607ZM123.704 32.8373C123.651 33.0527 123.491 33.1065 123.277 33.1065C123.17 32.945 122.849 32.5682 122.849 32.5682V32.5143C122.849 32.4605 122.902 32.4067 122.956 32.4067C123.063 32.3528 123.277 32.299 123.437 32.299C123.651 32.3529 123.758 32.622 123.704 32.8373ZM123.918 30.3072C124.132 30.2534 124.399 30.1458 124.56 30.4149C124.72 30.6302 124.667 31.0071 124.399 31.1147C124.185 31.1686 123.972 31.2224 123.811 31.0609C123.544 30.8994 123.597 30.4149 123.918 30.3072ZM124.132 31.4915C124.346 31.4377 124.56 31.3301 124.72 31.5454C124.88 31.7607 124.827 32.1375 124.56 32.2452C124.399 32.299 124.132 32.3528 123.972 32.1914C123.811 32.0299 123.811 31.5454 124.132 31.4915ZM125.041 33.268C125.041 33.3757 124.88 33.3757 124.774 33.4295C124.506 33.5372 124.239 33.4833 124.132 33.1603C124.025 32.7835 124.292 32.622 124.613 32.5682C124.774 32.5144 124.934 32.5682 125.041 32.6758C125.094 32.7297 125.094 32.7297 125.094 32.7835C125.094 32.7835 125.041 33.1603 125.041 33.268ZM125.255 31.7607V31.9222C125.094 31.8145 125.041 31.5992 125.094 31.4377C125.148 31.3301 125.308 31.2762 125.362 31.2762C125.308 31.3839 125.255 31.5454 125.255 31.7607ZM125.522 30.4688C125.522 30.5226 125.415 30.9532 125.415 30.9532H125.201C124.987 30.9532 124.774 30.7379 124.827 30.4688C124.88 30.2534 125.041 30.2534 125.255 30.2534C125.362 30.2534 125.469 30.2534 125.575 30.3072C125.575 30.3072 125.522 30.4149 125.522 30.4688ZM135.519 29.7689C135.465 29.6613 134.984 30.1996 134.61 30.2534C134.557 30.2534 134.45 30.3072 134.396 30.3611C134.343 30.4149 134.289 30.5226 134.289 30.5764C134.289 30.6302 134.289 30.7379 134.343 30.7379C134.396 30.7917 134.45 30.7917 134.503 30.7917C134.557 30.7917 134.663 30.7379 134.717 30.6841C134.77 30.6302 134.824 30.5764 134.824 30.4688C134.931 30.1458 135.572 29.8228 135.519 29.7689ZM134.45 31.0071C134.396 30.9532 134.289 30.9532 134.236 30.9532C134.182 30.9532 134.182 30.9532 134.129 31.0071V30.6841C134.022 30.3073 134.557 29.7689 134.503 29.7151C134.45 29.6613 134.075 30.3611 133.755 30.5764C133.701 30.6302 133.648 30.6841 133.648 30.7917V31.0609L133.808 31.2224H133.969V31.33C133.969 31.3839 134.022 31.4915 134.075 31.4915C134.129 31.5454 134.236 31.5454 134.289 31.5454C134.396 31.5454 134.45 31.4915 134.503 31.4377C134.77 31.1686 135.465 30.8994 135.465 30.8456C135.412 30.6841 134.77 31.2224 134.45 31.0071ZM133.915 31.5454C133.862 31.4916 133.755 31.4377 133.701 31.4377H133.541V31.3839C133.541 31.2762 133.541 31.1686 133.487 31.1147C133.274 30.7379 133.808 29.9843 133.755 29.9843C133.701 29.9304 133.38 30.7917 133.113 31.1147C133.06 31.1686 133.006 31.2762 133.006 31.3839C133.006 31.4915 133.006 31.5992 133.06 31.653C133.113 31.7069 133.167 31.7607 133.274 31.7607H133.38C133.38 31.8684 133.38 31.9222 133.434 31.976C133.487 32.0299 133.594 32.0837 133.648 32.0837C133.755 32.0837 133.808 32.0837 133.915 32.0299C134.289 31.7607 135.091 31.5992 135.038 31.5454C134.984 31.4377 134.236 31.8684 133.915 31.5454ZM133.274 32.1914C133.22 32.1375 133.113 32.0837 133.006 32.0837H132.792C132.846 32.0299 132.846 31.976 132.846 31.9222C132.846 31.8145 132.846 31.7069 132.792 31.653C132.579 31.2224 133.167 30.4149 133.06 30.3611C133.006 30.3072 132.685 31.2762 132.365 31.5992C132.311 31.653 132.258 31.7607 132.258 31.8684C132.258 31.976 132.258 32.0837 132.311 32.1375C132.365 32.1914 132.418 32.2452 132.472 32.2452H132.525V32.299C132.525 32.4067 132.525 32.4605 132.632 32.5143C132.685 32.5682 132.792 32.622 132.899 32.622C133.006 32.622 133.113 32.622 133.167 32.5682C133.594 32.3529 134.396 32.1375 134.396 32.0299C134.45 31.976 133.648 32.4605 133.274 32.1914ZM124.827 35.9596C123.277 35.9596 121.994 36.6594 121.726 36.8209C121.994 36.4441 123.33 34.6138 125.629 34.6138H131.509C131.83 34.6138 132.097 34.9368 132.097 35.3136C132.097 35.6904 131.83 36.0134 131.509 36.0134C131.509 35.9596 126.324 35.9596 124.827 35.9596ZM125.255 41.1813C123.33 41.1813 123.17 39.7816 120.336 39.4586V39.4048C122.689 38.8126 123.544 39.8355 124.88 39.8355H131.509C131.83 39.8355 132.097 40.1584 132.097 40.5353C132.097 40.9121 131.83 41.2351 131.509 41.2351C131.509 41.1813 126.698 41.1813 125.255 41.1813ZM125.094 39.4586C123.223 39.4586 122.689 38.382 119.855 39.0818C119.855 39.0818 119.802 39.0818 119.855 39.028C121.406 37.9514 123.116 38.059 123.811 38.059H131.456C131.777 38.059 132.044 38.382 132.044 38.7588C132.044 39.1356 131.777 39.4586 131.456 39.4586H125.094ZM123.704 37.6822C121.994 37.6822 120.871 38.1128 120.55 38.2205C120.55 38.2205 120.497 38.2205 120.55 38.1667C122.475 36.1749 124.667 36.2826 125.201 36.2826H131.509C131.83 36.2826 132.097 36.6055 132.097 36.9824C132.097 37.3592 131.83 37.6822 131.509 37.6822H123.704ZM126.003 22.1248H124.934L124.346 19.7562C124.346 19.6486 124.292 19.4871 124.239 19.2179C124.185 18.9488 124.132 18.7873 124.132 18.6796C124.132 18.7873 124.079 18.9488 124.025 19.2179C123.972 19.4871 123.918 19.6486 123.918 19.7562L123.33 22.1248H122.261L121.138 17.6568H122.047L122.635 20.0792C122.742 20.5099 122.796 20.9405 122.849 21.2635C122.849 21.1559 122.902 20.9405 122.956 20.7252C123.009 20.4561 123.063 20.2946 123.063 20.1331L123.704 17.603H124.56L125.201 20.1331C125.255 20.2407 125.255 20.4022 125.308 20.6714C125.362 20.8867 125.362 21.102 125.415 21.2635C125.415 21.102 125.469 20.8867 125.522 20.6714C125.575 20.4561 125.629 20.2407 125.629 20.0792L126.217 17.6568H127.126L126.003 22.1248ZM128.569 22.1248H127.66V17.6568H130.226V18.4104H128.623V19.5409H130.119V20.2946H128.623V22.1248H128.569ZM133.969 19.0026C133.969 19.4871 133.808 19.8639 133.541 20.1331C133.22 20.4022 132.792 20.5099 132.258 20.5099H131.83V22.1248H130.868V17.6568H132.311C132.846 17.6568 133.274 17.7645 133.541 18.0336C133.808 18.1951 133.969 18.5719 133.969 19.0026ZM131.83 19.7562H132.151C132.418 19.7562 132.632 19.7024 132.792 19.5947C132.953 19.4871 133.006 19.3256 133.006 19.1103C133.006 18.8949 132.953 18.7334 132.846 18.6258C132.739 18.5181 132.525 18.4643 132.258 18.4643H131.83V19.7562ZM150.862 34.2908H149.792L149.204 31.9222C149.204 31.8145 149.151 31.653 149.097 31.3839C149.044 31.1147 148.991 30.9532 148.991 30.8456C148.991 30.9532 148.937 31.1147 148.884 31.3839C148.83 31.653 148.777 31.8145 148.777 31.9222L148.189 34.2908H147.119L145.997 29.8228H146.906L147.494 32.2452C147.601 32.6758 147.654 33.1065 147.708 33.4295C147.708 33.3218 147.761 33.1065 147.814 32.8912C147.868 32.622 147.921 32.4605 147.921 32.299L148.563 29.7689H149.472L150.113 32.299C150.167 32.4067 150.167 32.5682 150.22 32.8373C150.274 33.0527 150.274 33.268 150.327 33.4295C150.327 33.268 150.38 33.0527 150.434 32.8373C150.487 32.622 150.541 32.4067 150.541 32.2452L151.129 29.8228H152.038L150.862 34.2908ZM155.566 32.5682C155.566 33.1065 155.406 33.5371 155.138 33.8601C154.871 34.1831 154.443 34.3446 153.909 34.3446C153.588 34.3446 153.321 34.2908 153.053 34.1293C152.786 33.9678 152.626 33.7525 152.465 33.4833C152.305 33.2142 152.252 32.8912 152.252 32.5143C152.252 31.976 152.412 31.5454 152.679 31.2224C152.947 30.8994 153.374 30.7379 153.909 30.7379C154.23 30.7379 154.497 30.7917 154.764 30.9532C155.031 31.1147 155.192 31.2762 155.352 31.5454C155.513 31.8684 155.566 32.1914 155.566 32.5682ZM153.214 32.5682C153.214 32.8912 153.267 33.1603 153.374 33.3218C153.481 33.4833 153.641 33.591 153.909 33.591C154.176 33.591 154.336 33.4833 154.443 33.3218C154.55 33.1603 154.604 32.8912 154.604 32.5682C154.604 32.2452 154.55 31.976 154.443 31.8145C154.336 31.653 154.176 31.5454 153.909 31.5454C153.641 31.5454 153.481 31.653 153.374 31.8145C153.267 31.976 153.214 32.1914 153.214 32.5682ZM158.292 30.7917C158.399 30.7917 158.506 30.7917 158.613 30.8456L158.56 31.7069C158.506 31.7069 158.399 31.653 158.292 31.653C157.972 31.653 157.758 31.7069 157.597 31.8684C157.437 32.0299 157.33 32.2452 157.33 32.5143V34.237H156.421V30.7917H157.116L157.277 31.3839H157.33C157.437 31.1686 157.597 31.0609 157.758 30.8994C157.865 30.8456 158.079 30.7917 158.292 30.7917ZM160.217 34.2908H159.308V29.4998H160.217V34.2908ZM162.355 34.3446C161.981 34.3446 161.66 34.1831 161.393 33.8601C161.179 33.5371 161.072 33.1065 161.072 32.5682C161.072 32.0299 161.179 31.5454 161.446 31.2762C161.66 30.9532 161.981 30.7917 162.409 30.7917C162.836 30.7917 163.157 30.9532 163.371 31.2762H163.424C163.371 31.0071 163.371 30.7917 163.371 30.5764V29.4998H164.28V34.2908H163.585L163.424 33.8601H163.371C163.104 34.1831 162.783 34.3446 162.355 34.3446ZM162.676 33.591C162.89 33.591 163.104 33.5372 163.211 33.3757C163.318 33.2142 163.371 32.9988 163.371 32.6758V32.5682C163.371 32.1914 163.318 31.9222 163.211 31.7607C163.104 31.5992 162.89 31.5454 162.676 31.5454C162.462 31.5454 162.302 31.653 162.195 31.8145C162.088 31.976 162.035 32.2452 162.035 32.5682C162.035 32.8912 162.088 33.1603 162.195 33.3218C162.302 33.4833 162.462 33.591 162.676 33.591ZM167.862 34.2908H166.953V29.8228H169.519V30.5764H167.915V31.7069H169.412V32.4605H167.862V34.2908ZM173.261 32.5682C173.261 33.1065 173.101 33.5371 172.833 33.8601C172.566 34.1831 172.138 34.3446 171.604 34.3446C171.283 34.3446 171.016 34.2908 170.748 34.1293C170.481 33.9678 170.321 33.7525 170.16 33.4833C170 33.2142 169.946 32.8912 169.946 32.5143C169.946 31.976 170.107 31.5454 170.374 31.2224C170.641 30.8994 171.069 30.7379 171.604 30.7379C171.924 30.7379 172.192 30.7917 172.459 30.9532C172.726 31.1147 172.887 31.2762 173.047 31.5454C173.207 31.8684 173.261 32.1914 173.261 32.5682ZM170.909 32.5682C170.909 32.8912 170.962 33.1603 171.069 33.3218C171.176 33.4833 171.336 33.591 171.604 33.591C171.871 33.591 172.031 33.4833 172.138 33.3218C172.245 33.1603 172.299 32.8912 172.299 32.5682C172.299 32.2452 172.245 31.976 172.138 31.8145C172.031 31.653 171.871 31.5454 171.604 31.5454C171.336 31.5454 171.176 31.653 171.069 31.8145C170.962 31.976 170.909 32.1914 170.909 32.5682ZM177.057 32.5682C177.057 33.1065 176.896 33.5371 176.629 33.8601C176.362 34.1831 175.934 34.3446 175.399 34.3446C175.079 34.3446 174.811 34.2908 174.544 34.1293C174.277 33.9678 174.116 33.7525 173.956 33.4833C173.796 33.2142 173.742 32.8912 173.742 32.5143C173.742 31.976 173.902 31.5454 174.17 31.2224C174.437 30.8994 174.865 30.7379 175.399 30.7379C175.72 30.7379 175.987 30.7917 176.255 30.9532C176.522 31.1147 176.682 31.2762 176.843 31.5454C177.003 31.8684 177.057 32.1914 177.057 32.5682ZM174.704 32.5682C174.704 32.8912 174.758 33.1603 174.865 33.3218C174.972 33.4833 175.132 33.591 175.399 33.591C175.667 33.591 175.827 33.4833 175.934 33.3218C176.041 33.1603 176.094 32.8912 176.094 32.5682C176.094 32.2452 176.041 31.976 175.934 31.8145C175.827 31.653 175.667 31.5454 175.399 31.5454C175.132 31.5454 174.972 31.653 174.865 31.8145C174.758 31.976 174.704 32.1914 174.704 32.5682ZM178.821 34.3446C178.446 34.3446 178.126 34.1831 177.858 33.8601C177.645 33.5371 177.538 33.1065 177.538 32.5682C177.538 32.0299 177.645 31.5454 177.912 31.2762C178.126 30.9532 178.446 30.7917 178.874 30.7917C179.302 30.7917 179.623 30.9532 179.836 31.2762H179.89C179.836 31.0071 179.836 30.7917 179.836 30.5764V29.4998H180.745V34.2908H180.05L179.89 33.8601H179.836C179.623 34.1831 179.302 34.3446 178.821 34.3446ZM179.195 33.591C179.409 33.591 179.623 33.5372 179.73 33.3757C179.836 33.2142 179.89 32.9988 179.89 32.6758V32.5682C179.89 32.1914 179.836 31.9222 179.73 31.7607C179.623 31.5992 179.409 31.5454 179.195 31.5454C178.981 31.5454 178.821 31.653 178.714 31.8145C178.607 31.976 178.553 32.2452 178.553 32.5682C178.553 32.8912 178.607 33.1603 178.714 33.3218C178.767 33.4833 178.981 33.591 179.195 33.591ZM149.579 37.8975C149.579 38.382 149.418 38.7588 149.151 39.028C148.83 39.2971 148.402 39.4048 147.868 39.4048H147.44V41.0197H146.478V36.5517H147.921C148.456 36.5517 148.884 36.6594 149.151 36.9286C149.418 37.0362 149.579 37.413 149.579 37.8975ZM147.44 38.5973H147.761C148.028 38.5973 148.242 38.5435 148.402 38.4358C148.563 38.3282 148.616 38.1667 148.616 37.9514C148.616 37.736 148.563 37.5745 148.456 37.4669C148.349 37.3592 148.135 37.3054 147.868 37.3054H147.44V38.5973ZM152.038 37.4669C152.145 37.4669 152.252 37.4669 152.358 37.5207L152.305 38.382C152.252 38.382 152.145 38.3282 152.038 38.3282C151.717 38.3282 151.503 38.382 151.343 38.5435C151.182 38.705 151.075 38.9203 151.075 39.1895V40.9121H150.167V37.4669H150.862L151.022 38.059H151.075C151.182 37.8437 151.343 37.736 151.503 37.5745C151.61 37.5207 151.824 37.4669 152.038 37.4669ZM155.887 39.2433C155.887 39.7816 155.726 40.2123 155.459 40.5353C155.192 40.8583 154.764 41.0197 154.23 41.0197C153.909 41.0197 153.641 40.9659 153.374 40.8044C153.107 40.6429 152.946 40.4276 152.786 40.1585C152.626 39.8893 152.572 39.5663 152.572 39.1895C152.572 38.6512 152.733 38.2205 153 37.8975C153.267 37.5745 153.695 37.413 154.23 37.413C154.55 37.413 154.818 37.4669 155.085 37.6284C155.352 37.7899 155.513 37.9514 155.673 38.2205C155.833 38.5435 155.887 38.8665 155.887 39.2433ZM153.535 39.2433C153.535 39.5663 153.588 39.8355 153.695 39.9969C153.802 40.1584 153.962 40.2661 154.23 40.2661C154.497 40.2661 154.657 40.1584 154.764 39.9969C154.871 39.8355 154.924 39.5663 154.924 39.2433C154.924 38.9203 154.871 38.6512 154.764 38.4897C154.657 38.3282 154.497 38.2205 154.23 38.2205C153.962 38.2205 153.802 38.3282 153.695 38.4897C153.588 38.6512 153.535 38.9203 153.535 39.2433ZM159.469 37.5207V38.0052L158.934 38.1667C159.041 38.3282 159.094 38.4897 159.094 38.705C159.094 39.0818 158.987 39.351 158.72 39.5663C158.453 39.7816 158.132 39.8893 157.651 39.8893H157.33C157.223 39.9431 157.17 40.0508 157.17 40.1585C157.17 40.3199 157.33 40.3738 157.704 40.3738H158.292C158.667 40.3738 158.934 40.4276 159.148 40.5891C159.362 40.7506 159.415 40.9659 159.415 41.2889C159.415 41.6657 159.255 41.9887 158.934 42.2041C158.613 42.4194 158.132 42.527 157.491 42.527C157.009 42.527 156.635 42.4194 156.421 42.2579C156.208 42.0964 156.047 41.8811 156.047 41.5581C156.047 41.3427 156.101 41.1812 156.261 41.0197C156.368 40.8583 156.582 40.8044 156.849 40.6968C156.742 40.6429 156.689 40.5891 156.582 40.4814C156.528 40.3738 156.475 40.2661 156.475 40.2123C156.475 40.1046 156.528 39.997 156.582 39.8893C156.635 39.7816 156.742 39.7278 156.902 39.6201C156.742 39.5663 156.582 39.4048 156.475 39.2433C156.368 39.0818 156.314 38.8665 156.314 38.6512C156.314 38.2743 156.421 38.0052 156.689 37.7898C156.956 37.5745 157.277 37.4669 157.704 37.4669H158.025C158.132 37.4669 158.239 37.5207 158.292 37.5207H159.469ZM156.849 41.4504C156.849 41.5581 156.902 41.6657 157.009 41.7734C157.116 41.8272 157.33 41.8811 157.544 41.8811C157.865 41.8811 158.132 41.8272 158.346 41.7196C158.56 41.6119 158.613 41.5042 158.613 41.3427C158.613 41.2351 158.56 41.1274 158.453 41.0736C158.346 41.0197 158.185 41.0197 157.918 41.0197H157.437C157.277 41.0197 157.116 41.0736 157.009 41.1274C156.902 41.1812 156.849 41.2889 156.849 41.4504ZM157.223 38.6512C157.223 38.8127 157.277 38.9742 157.33 39.0818C157.437 39.1895 157.544 39.2433 157.704 39.2433C157.865 39.2433 158.025 39.1895 158.079 39.0818C158.185 38.9742 158.185 38.8127 158.185 38.6512C158.185 38.2205 158.025 38.059 157.704 38.059C157.384 38.059 157.223 38.2205 157.223 38.6512ZM161.821 37.4669C161.928 37.4669 162.035 37.4669 162.141 37.5207L162.088 38.382C162.035 38.382 161.928 38.3282 161.821 38.3282C161.5 38.3282 161.286 38.382 161.126 38.5435C160.965 38.705 160.858 38.9203 160.858 39.1895V40.9121H159.95V37.4669H160.645L160.805 38.059H160.858C160.965 37.8437 161.126 37.736 161.286 37.5745C161.393 37.5207 161.607 37.4669 161.821 37.4669ZM164.654 40.9659L164.494 40.4814C164.333 40.6968 164.173 40.8044 164.013 40.9121C163.852 40.9659 163.638 41.0197 163.371 41.0197C163.05 41.0197 162.783 40.9121 162.623 40.7506C162.409 40.5891 162.355 40.3199 162.355 39.9431C162.355 39.5663 162.462 39.2971 162.73 39.1356C162.997 38.9741 163.371 38.8665 163.852 38.8665H164.44V38.705C164.44 38.382 164.28 38.1667 163.906 38.1667C163.638 38.1667 163.318 38.2743 162.943 38.4358L162.623 37.7898C162.997 37.5745 163.424 37.4669 163.906 37.4669C164.387 37.4669 164.708 37.5745 164.975 37.7898C165.242 38.0052 165.349 38.2743 165.349 38.705V40.9659H164.654ZM164.387 39.351H164.013C163.745 39.351 163.531 39.4048 163.424 39.5125C163.318 39.6201 163.211 39.7278 163.211 39.9431C163.211 40.2123 163.371 40.3199 163.638 40.3199C163.852 40.3199 164.013 40.2661 164.173 40.1585C164.28 40.0508 164.387 39.8893 164.387 39.674V39.351ZM169.145 40.9659H168.236V38.9741C168.236 38.705 168.182 38.5435 168.129 38.4358C168.022 38.3282 167.915 38.2743 167.755 38.2743C167.541 38.2743 167.327 38.382 167.22 38.5435C167.113 38.705 167.06 39.028 167.06 39.4048V41.0197H166.151V37.5745H166.846L166.953 38.0052H167.006C167.113 37.8437 167.22 37.736 167.38 37.6284C167.541 37.5207 167.755 37.5207 167.968 37.5207C168.503 37.5207 168.824 37.6822 168.984 38.0052H169.091C169.198 37.8437 169.305 37.736 169.519 37.6284C169.679 37.5207 169.893 37.5207 170.107 37.5207C170.481 37.5207 170.802 37.6284 170.962 37.8437C171.176 38.059 171.283 38.382 171.283 38.8127V41.0736H170.374V39.0818C170.374 38.8127 170.321 38.6512 170.267 38.5435C170.16 38.4358 170.053 38.382 169.893 38.382C169.679 38.382 169.519 38.4897 169.358 38.6512C169.252 38.8127 169.198 39.0818 169.198 39.4048V40.9659H169.145ZM175.079 40.9659H174.17V38.9741C174.17 38.705 174.116 38.5435 174.063 38.4358C173.956 38.3282 173.849 38.2743 173.689 38.2743C173.475 38.2743 173.261 38.382 173.154 38.5435C173.047 38.705 172.994 39.028 172.994 39.4048V41.0197H172.085V37.5745H172.78L172.887 38.0052H172.94C173.047 37.8437 173.154 37.736 173.314 37.6284C173.475 37.5207 173.689 37.5207 173.902 37.5207C174.437 37.5207 174.758 37.6822 174.918 38.0052H175.025C175.132 37.8437 175.239 37.736 175.453 37.6284C175.613 37.5207 175.827 37.5207 176.041 37.5207C176.415 37.5207 176.736 37.6284 176.896 37.8437C177.11 38.059 177.217 38.382 177.217 38.8127V41.0736H176.308V39.0818C176.308 38.8127 176.255 38.6512 176.201 38.5435C176.094 38.4358 175.987 38.382 175.827 38.382C175.613 38.382 175.453 38.4897 175.292 38.6512C175.185 38.8127 175.132 39.0818 175.132 39.4048V40.9659H175.079ZM179.569 41.0197C179.035 41.0197 178.607 40.8583 178.286 40.5891C177.965 40.2661 177.805 39.8355 177.805 39.2971C177.805 38.705 177.965 38.2743 178.233 37.9514C178.5 37.6284 178.928 37.4669 179.409 37.4669C179.89 37.4669 180.264 37.6284 180.531 37.8975C180.799 38.1667 180.959 38.5435 180.959 39.028V39.4586H178.767C178.767 39.7278 178.874 39.9431 178.981 40.1046C179.141 40.2661 179.355 40.3199 179.569 40.3199C179.783 40.3199 179.943 40.3199 180.157 40.2661C180.318 40.2123 180.531 40.1584 180.745 40.0508V40.7506C180.585 40.8582 180.424 40.9121 180.211 40.9121C180.05 41.0198 179.836 41.0197 179.569 41.0197ZM179.409 38.1128C179.195 38.1128 179.035 38.1667 178.928 38.2743C178.821 38.382 178.767 38.5973 178.714 38.8127H179.997C179.997 38.5973 179.943 38.382 179.836 38.2743C179.783 38.2205 179.623 38.1128 179.409 38.1128ZM149.311 22.717V25.0856C149.311 25.5162 149.204 25.8392 148.937 26.0545C148.67 26.2699 148.349 26.4314 147.921 26.4314C147.494 26.4314 147.119 26.3237 146.906 26.0545C146.692 25.8392 146.531 25.4624 146.531 25.0856V22.717H146.959V25.0856C146.959 25.4086 147.066 25.6239 147.226 25.7854C147.387 25.9469 147.654 26.0545 147.975 26.0545C148.296 26.0545 148.509 25.9469 148.67 25.7854C148.83 25.6239 148.937 25.4086 148.937 25.0856V22.717H149.311ZM152.038 26.3775V24.6011C152.038 24.3858 151.984 24.2243 151.877 24.1166C151.77 24.0089 151.61 23.9551 151.396 23.9551C151.129 23.9551 150.915 24.0089 150.755 24.1704C150.648 24.3319 150.541 24.6011 150.541 24.9241V26.3775H150.22V23.6321H150.541L150.594 24.0089C150.701 23.8475 150.808 23.7936 150.969 23.686C151.129 23.6321 151.289 23.5783 151.503 23.5783C151.824 23.5783 152.091 23.6321 152.252 23.7936C152.412 23.9551 152.519 24.2243 152.519 24.5473V26.3237H152.038V26.3775ZM153.267 22.8785C153.267 22.7708 153.267 22.717 153.321 22.6632C153.374 22.6093 153.428 22.6093 153.481 22.6093C153.535 22.6093 153.588 22.6093 153.641 22.6632C153.695 22.717 153.695 22.7708 153.695 22.8785C153.695 22.9861 153.695 23.04 153.641 23.0938C153.588 23.1476 153.535 23.1476 153.481 23.1476C153.428 23.1476 153.374 23.1476 153.321 23.0938C153.267 23.04 153.267 22.9861 153.267 22.8785ZM153.695 26.3775H153.267V23.6321H153.695V26.3775ZM155.459 26.1084H155.673C155.726 26.1084 155.78 26.1084 155.833 26.0545V26.3775C155.78 26.3775 155.726 26.4314 155.619 26.4314H155.406C154.871 26.4314 154.604 26.1622 154.604 25.5701V23.9551H154.23V23.7398L154.604 23.5783L154.764 22.9861H155.031V23.6321H155.833V23.9551H155.031V25.5701C155.031 25.7316 155.085 25.8392 155.138 25.9469C155.245 26.0545 155.352 26.1084 155.459 26.1084ZM157.491 26.4314C157.063 26.4314 156.742 26.3237 156.528 26.0545C156.314 25.7854 156.154 25.4624 156.154 25.0317C156.154 24.6011 156.261 24.2243 156.475 23.9551C156.689 23.686 156.956 23.5783 157.33 23.5783C157.651 23.5783 157.918 23.686 158.132 23.9013C158.346 24.1166 158.453 24.4396 158.453 24.8164V25.0856H156.635C156.635 25.4086 156.742 25.6777 156.902 25.8392C157.063 26.0007 157.277 26.1084 157.544 26.1084C157.865 26.1084 158.132 26.0545 158.399 25.9469V26.3237C158.239 26.3775 158.132 26.4314 157.972 26.4852C157.811 26.4314 157.704 26.4314 157.491 26.4314ZM157.384 23.9551C157.17 23.9551 157.009 24.0089 156.849 24.1704C156.742 24.3319 156.635 24.4934 156.635 24.7626H158.079C158.079 24.4934 158.025 24.2781 157.918 24.1704C157.758 24.0089 157.597 23.9551 157.384 23.9551ZM161.072 26.0007C160.858 26.2699 160.591 26.4314 160.217 26.4314C159.843 26.4314 159.575 26.3237 159.362 26.0545C159.148 25.7854 159.041 25.4624 159.041 25.0317C159.041 24.6011 159.148 24.2243 159.362 23.9551C159.575 23.686 159.843 23.5783 160.217 23.5783C160.591 23.5783 160.858 23.7398 161.072 24.0089H161.126V22.4478H161.446V26.3237H161.126L161.072 26.0007ZM160.217 26.0545C160.484 26.0545 160.698 26.0007 160.805 25.8392C160.912 25.6777 161.019 25.4086 161.019 25.0856V24.9779C161.019 24.6011 160.965 24.3319 160.805 24.1704C160.698 24.0089 160.484 23.9013 160.163 23.9013C159.896 23.9013 159.736 24.0089 159.629 24.1704C159.522 24.3858 159.415 24.6549 159.415 24.9779C159.415 25.3547 159.469 25.5701 159.629 25.7854C159.789 26.0007 160.003 26.0545 160.217 26.0545ZM166.418 26.3775H165.937L163.959 23.3091C163.959 23.6859 164.013 24.0089 164.013 24.2781V26.3775H163.638V22.717H164.119L166.097 25.7854V22.717H166.472V26.3775H166.418ZM168.984 26.3775L168.877 26.0007C168.717 26.1622 168.61 26.2699 168.45 26.3775C168.289 26.4314 168.129 26.4852 167.968 26.4852C167.701 26.4852 167.487 26.4314 167.327 26.2699C167.167 26.1084 167.113 25.9469 167.113 25.6777C167.113 25.1394 167.541 24.8164 168.45 24.8164H168.931V24.6549C168.931 24.4396 168.877 24.2781 168.77 24.1704C168.663 24.0628 168.557 24.0089 168.343 24.0089C168.129 24.0089 167.862 24.0628 167.594 24.2243L167.487 23.9013C167.648 23.8474 167.755 23.7936 167.915 23.7398C168.075 23.686 168.236 23.686 168.396 23.686C168.717 23.686 168.984 23.7398 169.145 23.9013C169.305 24.0628 169.358 24.2781 169.358 24.6011V26.4852H168.984V26.3775ZM168.022 26.1084C168.289 26.1084 168.503 26.0546 168.61 25.8931C168.77 25.7316 168.824 25.5701 168.824 25.3009V25.0317H168.396C168.075 25.0317 167.808 25.0856 167.701 25.1932C167.541 25.3009 167.487 25.4086 167.487 25.6239C167.487 25.7854 167.541 25.893 167.648 25.9469C167.755 26.0545 167.862 26.1084 168.022 26.1084ZM171.016 26.1084H171.23C171.283 26.1084 171.336 26.1084 171.39 26.0545V26.3775C171.336 26.3775 171.283 26.4314 171.176 26.4314H170.962C170.428 26.4314 170.16 26.1622 170.16 25.5701V23.9551H169.786V23.7398L170.16 23.5783L170.321 22.9861H170.535V23.6321H171.336V23.9551H170.535V25.5701C170.535 25.7316 170.588 25.8392 170.641 25.9469C170.748 26.0545 170.855 26.1084 171.016 26.1084ZM171.871 22.8785C171.871 22.7708 171.871 22.717 171.924 22.6632C171.978 22.6093 172.031 22.6093 172.085 22.6093C172.138 22.6093 172.192 22.6093 172.245 22.6632C172.299 22.717 172.299 22.7708 172.299 22.8785C172.299 22.9861 172.299 23.04 172.245 23.0938C172.192 23.1476 172.138 23.1476 172.085 23.1476C172.031 23.1476 171.978 23.1476 171.924 23.0938C171.924 23.04 171.871 22.9861 171.871 22.8785ZM172.352 26.3775H171.924V23.6321H172.352V26.3775ZM175.506 24.9779C175.506 25.4086 175.399 25.7854 175.185 26.0007C174.972 26.2699 174.651 26.3775 174.277 26.3775C174.009 26.3775 173.796 26.3237 173.635 26.216C173.421 26.1084 173.314 25.9469 173.208 25.7316C173.101 25.5162 173.047 25.2471 173.047 24.9779C173.047 24.5473 173.154 24.1704 173.368 23.9551C173.582 23.686 173.902 23.5783 174.277 23.5783C174.651 23.5783 174.972 23.686 175.185 23.9551C175.399 24.2243 175.506 24.5473 175.506 24.9779ZM173.421 24.9779C173.421 25.3547 173.475 25.5701 173.635 25.7854C173.796 25.9469 173.956 26.0545 174.223 26.0545C174.491 26.0545 174.704 25.9469 174.865 25.7854C175.025 25.6239 175.079 25.3547 175.079 24.9779C175.079 24.6549 175.025 24.3858 174.865 24.1704C174.704 24.0089 174.491 23.9013 174.223 23.9013C173.956 23.9013 173.742 24.0089 173.635 24.1704C173.528 24.3858 173.421 24.6549 173.421 24.9779ZM178.072 26.3775V24.6011C178.072 24.3858 178.019 24.2243 177.912 24.1166C177.805 24.0089 177.645 23.9551 177.431 23.9551C177.163 23.9551 176.95 24.0089 176.789 24.1704C176.682 24.3319 176.575 24.6011 176.575 24.9241V26.3775H176.148V23.6321H176.469L176.522 24.0089C176.629 23.8475 176.736 23.7936 176.896 23.686C177.057 23.6321 177.217 23.5783 177.431 23.5783C177.752 23.5783 178.019 23.6321 178.179 23.7936C178.34 23.9551 178.447 24.2243 178.447 24.5473V26.3237H178.072V26.3775ZM181.066 25.6239C181.066 25.8931 180.959 26.0545 180.799 26.216C180.585 26.3775 180.318 26.4314 179.997 26.4314C179.623 26.4314 179.355 26.3775 179.141 26.2699V25.8931C179.248 25.9469 179.409 26.0007 179.569 26.0545C179.729 26.1084 179.89 26.1084 179.997 26.1084C180.211 26.1084 180.371 26.0545 180.478 26.0007C180.585 25.9469 180.638 25.8392 180.638 25.6777C180.638 25.5701 180.585 25.4624 180.478 25.4086C180.371 25.3547 180.211 25.2471 179.943 25.1394C179.676 25.0317 179.516 24.9779 179.409 24.8702C179.302 24.8164 179.248 24.7088 179.195 24.6549C179.141 24.5473 179.141 24.4396 179.141 24.3319C179.141 24.1166 179.248 23.9551 179.409 23.7936C179.569 23.6859 179.836 23.5783 180.157 23.5783C180.424 23.5783 180.745 23.6321 181.013 23.7398L180.852 24.0628C180.585 23.9551 180.318 23.9013 180.104 23.9013C179.89 23.9013 179.783 23.9551 179.676 24.0089C179.569 24.0628 179.516 24.1704 179.516 24.2781C179.516 24.3319 179.516 24.4396 179.569 24.4396L179.73 24.6011C179.836 24.6549 179.997 24.7088 180.211 24.8164C180.531 24.9241 180.745 25.0317 180.852 25.1932C181.013 25.3009 181.066 25.4624 181.066 25.6239Z" fill="white"/>
</g>
<defs>
<clipPath id="clip0">
<rect width="204" height="68" fill="white"/>
</clipPath>
</defs>
</svg>